# xmcd
#
# Track frame offsets:
#	150
#	10825
#	22427
#	33980
#	45922
#	56237
#	67625
#	80247
#	90982
#	100502
#	113017
#	121892
#	133902
#	146380
#
# Disc length: 2116 seconds
#
# Revision: 3
# Processed by: cddbd v1.5.2PL0 Copyright (c) Steve Scherf et al.
# Submitted via: audiograbber 1.83.01
#
DISCID=b008420e
DTITLE=Lloyd Price - Stagger Lee and All His Other Greatest Hits
DYEAR=1990
DGENRE=Rock´n´Roll
TTITLE0=Stagger Lee
TTITLE1=(You've Got) Personality
TTITLE2=I'm Gonna Get Married
TTITLE3=Where Were You (On Your Wedding Day)
TTITLE4=Lady Luck
TTITLE5=Never Let me Go
TTITLE6=You Need Love
TTITLE7=Lawdy Miss Clawdy
TTITLE8=Come Into My Heart
TTITLE9=Just Because
TTITLE10=Is It Really Love
TTITLE11=What Do You Do To My Heart
TTITLE12=Talk To Me
TTITLE13=That's Why Tears Come And Go
EXTD=
EXTT0=
EXTT1=
EXTT2=
EXTT3=
EXTT4=
EXTT5=
EXTT6=
EXTT7=
EXTT8=
EXTT9=
EXTT10=
EXTT11=
EXTT12=
EXTT13=
PLAYORDER=
